<svg viewBox="2 0 90 90" version="1.1" xmlns="http://www.w3.org/2000/svg" xmlns:xlink="http://www.w3.org/1999/xlink">
    
    <defs>
        
        
    </defs>
    <g id="Emoticon---Overwhelmed" stroke="none" stroke-width="1" fill="none" fill-rule="evenodd">
        <g id="Group-33" transform="translate(3.000000, 1.000000)">
            <path d="M87.4389333,43.8421333 C87.4389333,67.9194667 67.9189333,87.4421333 43.8389333,87.4421333 C19.7616,87.4421333 0.2416,67.9194667 0.2416,43.8421333 C0.2416,19.7648 19.7616,0.242133333 43.8389333,0.242133333 C67.9189333,0.242133333 87.4389333,19.7648 87.4389333,43.8421333" id="Fill-169" fill="#FFDD67"></path>
            <path d="M43.84,0.485333333 C19.9333333,0.485333333 0.482666667,19.9333333 0.482666667,43.8426667 C0.482666667,67.7493333 19.9333333,87.2 43.84,87.2 C67.7466667,87.2 87.1973333,67.7493333 87.1973333,43.8426667 C87.1973333,19.9333333 67.7466667,0.485333333 43.84,0.485333333 M43.84,87.68 C19.6666667,87.68 1.35476815e-12,68.0133333 1.35476815e-12,43.8426667 C1.35476815e-12,19.6666667 19.6666667,1.5158245e-13 43.84,1.5158245e-13 C68.0133333,1.5158245e-13 87.68,19.6666667 87.68,43.8426667 C87.68,68.0133333 68.0133333,87.68 43.84,87.68" id="Fill-171" fill="#B2A18D"></path>
            <path d="M37.4416,26.2666667 C36.1616,34.616 28.9082667,40.0826667 21.9749333,39.016 C15.0442667,37.9546667 10.3376,31.4373333 11.6176,23.0906667 C12.8976,14.7413333 20.6682667,8.048 27.6016,9.10933333 C34.5322667,10.1733333 38.7216,17.9173333 37.4416,26.2666667" id="Fill-173" fill="#FFFFFF"></path>
            <path d="M35.3258667,23.7824 C35.3258667,27.1157333 32.6245333,29.8197333 29.2912,29.8197333 C25.9578667,29.8197333 23.2565333,27.1157333 23.2565333,23.7824 C23.2565333,20.4517333 25.9578667,17.7477333 29.2912,17.7477333 C32.6245333,17.7477333 35.3258667,20.4517333 35.3258667,23.7824" id="Fill-175" fill="#002C60"></path>
            <path d="M30.4298667,25.876 C30.4298667,27.2546667 29.3125333,28.372 27.9338667,28.372 C26.5578667,28.372 25.4405333,27.2546667 25.4405333,25.876 C25.4405333,24.5 26.5578667,23.3826667 27.9338667,23.3826667 C29.3125333,23.3826667 30.4298667,24.5 30.4298667,25.876" id="Fill-177" fill="#FFFFFF"></path>
            <path d="M50.0016,26.2666667 C51.2816,34.616 58.5349333,40.0826667 65.4656,39.016 C72.3989333,37.9546667 77.1056,31.4373333 75.8256,23.0906667 C74.5456,14.7413333 66.7749333,8.048 59.8416,9.10933333 C52.9109333,10.1733333 48.7216,17.9173333 50.0016,26.2666667" id="Fill-179" fill="#FFFFFF"></path>
            <path d="M52.1173333,23.7824 C52.1173333,27.1157333 54.8186667,29.8197333 58.152,29.8197333 C61.4853333,29.8197333 64.1866667,27.1157333 64.1866667,23.7824 C64.1866667,20.4517333 61.4853333,17.7477333 58.152,17.7477333 C54.8186667,17.7477333 52.1173333,20.4517333 52.1173333,23.7824" id="Fill-181" fill="#002C60"></path>
            <path d="M57.0133333,25.876 C57.0133333,27.2546667 58.1306667,28.372 59.5066667,28.372 C60.8853333,28.372 62.0026667,27.2546667 62.0026667,25.876 C62.0026667,24.5 60.8853333,23.3826667 59.5066667,23.3826667 C58.1306667,23.3826667 57.0133333,24.5 57.0133333,25.876" id="Fill-183" fill="#FFFFFF"></path>
            <path d="M44.0810667,43.5376 C27.3370667,43.7002667 13.2064,58.4576 20.7477333,69.9189333 C20.7584,69.9322667 20.7690667,69.9509333 20.7797333,69.9669333 C23.5317333,74.1482667 28.2384,76.0976 33.2090667,76.6629333 C38.9717333,77.3216 49.0304,77.2789333 54.9530667,76.6629333 C59.9290667,76.1482667 64.6304,74.1482667 67.3797333,69.9669333 C67.3930667,69.9509333 67.4037333,69.9322667 67.4144,69.9189333 C74.9557333,58.4576 60.8250667,43.7002667 44.0810667,43.5376" id="Fill-185" fill="#600815"></path>
            <path d="M44.0810667,64.0608 C34.7610667,64.0688 26.9690667,69.7114667 27.0490667,75.0848 C28.9637333,75.9141333 31.0597333,76.4181333 33.2090667,76.6634667 C38.9717333,77.3221333 49.0304,77.2794667 54.9530667,76.6634667 C57.1024,76.4421333 59.1984,75.9381333 61.1130667,75.1061333 C61.2144,69.7194667 53.4144,64.0688 44.0810667,64.0608" id="Fill-187" fill="#CE5353"></path>
        </g>
    </g>
</svg>